<svg xmlns="http://www.w3.org/2000/svg" viewBox="0 0 210 297" fill="none">
  <rect width="210" height="297" fill="#fdf2f8"/>
  <circle cx="170" cy="40" r="60" fill="#f9a8d4" opacity="0.3"/>
  <circle cx="40" cy="250" r="50" fill="#c084fc" opacity="0.2"/>
  <rect x="30" y="40" width="100" height="12" rx="2" fill="#831843"/>
  <rect x="30" y="58" width="70" height="5" rx="1" fill="#9d174d"/>
  <rect x="30" y="70" width="120" height="3" rx="1" fill="#be185d"/>
  <rect x="30" y="95" width="150" height="3" rx="1" fill="#a21caf"/>
  <rect x="30" y="101" width="140" height="3" rx="1" fill="#a21caf"/>
  <rect x="30" y="120" width="60" height="8" rx="2" fill="#831843"/>
  <rect x="30" y="135" width="90" height="4" rx="1" fill="#9d174d"/>
  <rect x="30" y="142" width="70" height="3" rx="1" fill="#be185d"/>
  <rect x="30" y="148" width="130" height="3" rx="1" fill="#db2777"/>
  <rect x="30" y="154" width="120" height="3" rx="1" fill="#db2777"/>
  <rect x="30" y="170" width="90" height="4" rx="1" fill="#9d174d"/>
  <rect x="30" y="177" width="70" height="3" rx="1" fill="#be185d"/>
  <rect x="30" y="183" width="125" height="3" rx="1" fill="#db2777"/>
  <rect x="30" y="205" width="60" height="8" rx="2" fill="#831843"/>
  <rect x="30" y="220" width="35" height="20" rx="4" fill="#fce7f3"/>
  <rect x="35" y="227" width="25" height="4" rx="1" fill="#be185d"/>
  <rect x="70" y="220" width="35" height="20" rx="4" fill="#fce7f3"/>
  <rect x="75" y="227" width="25" height="4" rx="1" fill="#a21caf"/>
  <rect x="110" y="220" width="35" height="20" rx="4" fill="#fce7f3"/>
  <rect x="115" y="227" width="25" height="4" rx="1" fill="#7c3aed"/>
</svg>
