<svg xmlns="http://www.w3.org/2000/svg" viewBox="0 0 210 297" fill="none">
  <rect width="210" height="297" fill="#0f172a"/>
  <rect x="20" y="25" width="120" height="14" rx="2" fill="#f8fafc"/>
  <rect x="20" y="45" width="80" height="6" rx="1" fill="#38bdf8"/>
  <rect x="20" y="60" width="100" height="3" rx="1" fill="#64748b"/>
  <rect x="20" y="66" width="80" height="3" rx="1" fill="#64748b"/>
  <rect x="20" y="85" width="60" height="8" rx="1" fill="#38bdf8"/>
  <rect x="20" y="100" width="170" height="3" rx="1" fill="#475569"/>
  <rect x="20" y="106" width="160" height="3" rx="1" fill="#475569"/>
  <rect x="20" y="112" width="150" height="3" rx="1" fill="#475569"/>
  <rect x="20" y="130" width="60" height="8" rx="1" fill="#38bdf8"/>
  <rect x="20" y="145" width="100" height="5" rx="1" fill="#e2e8f0"/>
  <rect x="20" y="153" width="80" height="3" rx="1" fill="#64748b"/>
  <rect x="20" y="159" width="150" height="3" rx="1" fill="#475569"/>
  <rect x="20" y="165" width="140" height="3" rx="1" fill="#475569"/>
  <rect x="20" y="180" width="100" height="5" rx="1" fill="#e2e8f0"/>
  <rect x="20" y="188" width="80" height="3" rx="1" fill="#64748b"/>
  <rect x="20" y="194" width="145" height="3" rx="1" fill="#475569"/>
  <rect x="20" y="215" width="60" height="8" rx="1" fill="#38bdf8"/>
  <rect x="20" y="230" width="45" height="15" rx="3" fill="#1e293b"/>
  <rect x="25" y="235" width="35" height="5" rx="1" fill="#38bdf8"/>
  <rect x="75" y="230" width="45" height="15" rx="3" fill="#1e293b"/>
  <rect x="80" y="235" width="30" height="5" rx="1" fill="#38bdf8"/>
</svg>
