<svg xmlns="http://www.w3.org/2000/svg" viewBox="0 0 210 297" fill="none">
  <rect width="210" height="297" fill="#ffffff"/>
  <rect x="20" y="20" width="170" height="35" fill="#1e293b"/>
  <rect x="30" y="28" width="80" height="8" rx="2" fill="#ffffff"/>
  <rect x="30" y="40" width="60" height="4" rx="1" fill="#94a3b8"/>
  <rect x="20" y="65" width="170" height="20" fill="#f8fafc"/>
  <rect x="25" y="70" width="160" height="3" rx="1" fill="#64748b"/>
  <rect x="25" y="76" width="140" height="3" rx="1" fill="#64748b"/>
  <rect x="20" y="95" width="80" height="6" rx="1" fill="#1e293b"/>
  <line x1="20" y1="105" x2="190" y2="105" stroke="#e2e8f0" stroke-width="1"/>
  <rect x="20" y="115" width="100" height="4" rx="1" fill="#334155"/>
  <rect x="140" y="115" width="50" height="3" rx="1" fill="#94a3b8"/>
  <rect x="20" y="122" width="80" height="3" rx="1" fill="#64748b"/>
  <rect x="20" y="128" width="120" height="3" rx="1" fill="#94a3b8"/>
  <rect x="20" y="134" width="100" height="3" rx="1" fill="#94a3b8"/>
  <rect x="20" y="150" width="100" height="4" rx="1" fill="#334155"/>
  <rect x="140" y="150" width="50" height="3" rx="1" fill="#94a3b8"/>
  <rect x="20" y="157" width="80" height="3" rx="1" fill="#64748b"/>
  <rect x="20" y="163" width="110" height="3" rx="1" fill="#94a3b8"/>
  <rect x="20" y="180" width="80" height="6" rx="1" fill="#1e293b"/>
  <line x1="20" y1="190" x2="190" y2="190" stroke="#e2e8f0" stroke-width="1"/>
  <rect x="20" y="200" width="70" height="4" rx="1" fill="#334155"/>
  <rect x="20" y="207" width="50" height="3" rx="1" fill="#64748b"/>
</svg>
