<svg xmlns="http://www.w3.org/2000/svg" viewBox="0 0 210 297" fill="none">
  <rect width="210" height="297" fill="#ffffff"/>
  <rect x="10" y="10" width="190" height="30" fill="#f1f5f9"/>
  <rect x="15" y="15" width="70" height="7" rx="1" fill="#0f172a"/>
  <rect x="15" y="25" width="50" height="4" rx="1" fill="#64748b"/>
  <rect x="100" y="15" width="40" height="3" rx="1" fill="#94a3b8"/>
  <rect x="100" y="20" width="50" height="3" rx="1" fill="#94a3b8"/>
  <rect x="100" y="25" width="45" height="3" rx="1" fill="#94a3b8"/>
  <rect x="10" y="45" width="60" height="120" fill="#f8fafc"/>
  <rect x="75" y="45" width="60" height="120" fill="#ffffff"/>
  <rect x="140" y="45" width="60" height="120" fill="#f8fafc"/>
  <rect x="15" y="50" width="40" height="4" rx="1" fill="#0f172a"/>
  <rect x="15" y="58" width="50" height="3" rx="1" fill="#334155"/>
  <rect x="15" y="63" width="40" height="2" rx="1" fill="#64748b"/>
  <rect x="15" y="68" width="48" height="2" rx="1" fill="#94a3b8"/>
  <rect x="15" y="78" width="50" height="3" rx="1" fill="#334155"/>
  <rect x="15" y="83" width="40" height="2" rx="1" fill="#64748b"/>
  <rect x="15" y="88" width="45" height="2" rx="1" fill="#94a3b8"/>
  <rect x="80" y="50" width="40" height="4" rx="1" fill="#0f172a"/>
  <rect x="80" y="58" width="50" height="3" rx="1" fill="#334155"/>
  <rect x="80" y="63" width="35" height="2" rx="1" fill="#64748b"/>
  <rect x="80" y="68" width="45" height="2" rx="1" fill="#94a3b8"/>
  <rect x="80" y="78" width="50" height="3" rx="1" fill="#334155"/>
  <rect x="80" y="83" width="35" height="2" rx="1" fill="#64748b"/>
  <rect x="145" y="50" width="35" height="4" rx="1" fill="#0f172a"/>
  <rect x="145" y="58" width="45" height="10" rx="2" fill="#e2e8f0"/>
  <rect x="148" y="62" width="30" height="2" rx="1" fill="#4f46e5"/>
  <rect x="145" y="72" width="45" height="10" rx="2" fill="#e2e8f0"/>
  <rect x="148" y="76" width="25" height="2" rx="1" fill="#4f46e5"/>
  <rect x="145" y="90" width="35" height="4" rx="1" fill="#0f172a"/>
  <rect x="145" y="98" width="40" height="3" rx="1" fill="#64748b"/>
  <rect x="145" y="104" width="35" height="3" rx="1" fill="#64748b"/>
</svg>
