<svg xmlns="http://www.w3.org/2000/svg" viewBox="0 0 210 297" fill="none">
  <rect width="210" height="297" fill="#fef7cd"/>
  <rect x="0" y="0" width="70" height="297" fill="#f97316"/>
  <circle cx="35" cy="45" r="20" fill="#ffffff"/>
  <rect x="15" y="80" width="40" height="5" rx="2" fill="#ffffff"/>
  <rect x="20" y="90" width="30" height="3" rx="1" fill="rgba(255,255,255,0.7)"/>
  <rect x="15" y="110" width="40" height="4" rx="1" fill="rgba(255,255,255,0.8)"/>
  <rect x="15" y="117" width="35" height="3" rx="1" fill="rgba(255,255,255,0.6)"/>
  <rect x="15" y="123" width="40" height="3" rx="1" fill="rgba(255,255,255,0.6)"/>
  <rect x="15" y="145" width="40" height="4" rx="1" fill="rgba(255,255,255,0.8)"/>
  <rect x="15" y="152" width="30" height="3" rx="1" fill="rgba(255,255,255,0.6)"/>
  <rect x="15" y="158" width="35" height="3" rx="1" fill="rgba(255,255,255,0.6)"/>
  <rect x="85" y="30" width="110" height="10" rx="2" fill="#c2410c"/>
  <rect x="85" y="45" width="80" height="5" rx="1" fill="#78350f"/>
  <rect x="85" y="60" width="100" height="3" rx="1" fill="#92400e"/>
  <rect x="85" y="66" width="90" height="3" rx="1" fill="#92400e"/>
  <rect x="85" y="90" width="50" height="6" rx="1" fill="#c2410c"/>
  <rect x="85" y="102" width="90" height="4" rx="1" fill="#78350f"/>
  <rect x="85" y="109" width="70" height="3" rx="1" fill="#92400e"/>
  <rect x="85" y="115" width="100" height="3" rx="1" fill="#a16207"/>
  <rect x="85" y="130" width="90" height="4" rx="1" fill="#78350f"/>
  <rect x="85" y="137" width="70" height="3" rx="1" fill="#92400e"/>
  <rect x="85" y="143" width="95" height="3" rx="1" fill="#a16207"/>
</svg>
