<svg xmlns="http://www.w3.org/2000/svg" viewBox="0 0 210 297" fill="none">
  <rect width="210" height="297" fill="#fafaf9"/>
  <rect x="30" y="30" width="150" height="1" fill="#d6d3d1"/>
  <rect x="55" y="40" width="100" height="10" rx="2" fill="#44403c"/>
  <rect x="70" y="55" width="70" height="4" rx="1" fill="#78716c"/>
  <rect x="30" y="68" width="150" height="1" fill="#d6d3d1"/>
  <rect x="50" y="80" width="110" height="3" rx="1" fill="#a8a29e"/>
  <rect x="55" y="86" width="100" height="3" rx="1" fill="#a8a29e"/>
  <rect x="30" y="105" width="150" height="1" fill="#d6d3d1"/>
  <rect x="85" y="112" width="40" height="5" rx="1" fill="#44403c"/>
  <rect x="30" y="125" width="80" height="4" rx="1" fill="#57534e"/>
  <rect x="130" y="125" width="50" height="3" rx="1" fill="#a8a29e"/>
  <rect x="30" y="132" width="60" height="3" rx="1" fill="#78716c"/>
  <rect x="30" y="138" width="140" height="3" rx="1" fill="#a8a29e"/>
  <rect x="30" y="155" width="80" height="4" rx="1" fill="#57534e"/>
  <rect x="130" y="155" width="50" height="3" rx="1" fill="#a8a29e"/>
  <rect x="30" y="162" width="60" height="3" rx="1" fill="#78716c"/>
  <rect x="30" y="168" width="130" height="3" rx="1" fill="#a8a29e"/>
  <rect x="30" y="190" width="150" height="1" fill="#d6d3d1"/>
  <rect x="85" y="197" width="40" height="5" rx="1" fill="#44403c"/>
  <rect x="30" y="210" width="70" height="4" rx="1" fill="#57534e"/>
  <rect x="30" y="217" width="50" height="3" rx="1" fill="#78716c"/>
</svg>
