<svg xmlns="http://www.w3.org/2000/svg" viewBox="0 0 210 297" fill="none">
  <rect width="210" height="297" fill="#fffbeb"/>
  <rect x="20" y="20" width="170" height="50" fill="#292524"/>
  <rect x="30" y="30" width="100" height="10" rx="2" fill="#fbbf24"/>
  <rect x="30" y="45" width="70" height="5" rx="1" fill="#d4d4d4"/>
  <rect x="30" y="55" width="100" height="3" rx="1" fill="#a3a3a3"/>
  <rect x="20" y="80" width="170" height="25" fill="#fef3c7"/>
  <rect x="30" y="87" width="150" height="3" rx="1" fill="#78716c"/>
  <rect x="30" y="93" width="140" height="3" rx="1" fill="#78716c"/>
  <rect x="20" y="115" width="100" height="120" fill="#ffffff"/>
  <rect x="130" y="115" width="60" height="120" fill="#fef3c7"/>
  <rect x="30" y="125" width="50" height="6" rx="1" fill="#292524"/>
  <line x1="30" y1="135" x2="110" y2="135" stroke="#fbbf24" stroke-width="2"/>
  <rect x="30" y="145" width="70" height="4" rx="1" fill="#44403c"/>
  <rect x="30" y="152" width="50" height="3" rx="1" fill="#78716c"/>
  <rect x="30" y="158" width="75" height="3" rx="1" fill="#a8a29e"/>
  <rect x="30" y="175" width="70" height="4" rx="1" fill="#44403c"/>
  <rect x="30" y="182" width="50" height="3" rx="1" fill="#78716c"/>
  <rect x="30" y="188" width="70" height="3" rx="1" fill="#a8a29e"/>
  <rect x="140" y="125" width="40" height="5" rx="1" fill="#292524"/>
  <rect x="140" y="135" width="35" height="3" rx="1" fill="#78716c"/>
  <rect x="140" y="141" width="40" height="3" rx="1" fill="#78716c"/>
  <rect x="140" y="155" width="40" height="5" rx="1" fill="#292524"/>
  <rect x="140" y="165" width="35" height="3" rx="1" fill="#78716c"/>
</svg>
