<svg xmlns="http://www.w3.org/2000/svg" viewBox="0 0 210 297" fill="none">
  <rect width="210" height="297" fill="#ffffff"/>
  <rect x="30" y="30" width="90" height="10" rx="2" fill="#0f172a"/>
  <rect x="30" y="44" width="60" height="5" rx="1" fill="#64748b"/>
  <rect x="30" y="55" width="120" height="3" rx="1" fill="#94a3b8"/>
  <rect x="30" y="80" width="150" height="3" rx="1" fill="#cbd5e1"/>
  <rect x="30" y="86" width="140" height="3" rx="1" fill="#cbd5e1"/>
  <rect x="30" y="92" width="130" height="3" rx="1" fill="#cbd5e1"/>
  <rect x="30" y="115" width="40" height="5" rx="1" fill="#0f172a"/>
  <rect x="30" y="125" width="80" height="4" rx="1" fill="#334155"/>
  <rect x="30" y="132" width="60" height="3" rx="1" fill="#64748b"/>
  <rect x="30" y="140" width="120" height="2" rx="1" fill="#94a3b8"/>
  <rect x="30" y="145" width="110" height="2" rx="1" fill="#94a3b8"/>
  <rect x="30" y="160" width="80" height="4" rx="1" fill="#334155"/>
  <rect x="30" y="167" width="60" height="3" rx="1" fill="#64748b"/>
  <rect x="30" y="175" width="100" height="2" rx="1" fill="#94a3b8"/>
  <rect x="30" y="195" width="40" height="5" rx="1" fill="#0f172a"/>
  <rect x="30" y="205" width="50" height="3" rx="1" fill="#64748b"/>
  <rect x="30" y="211" width="45" height="3" rx="1" fill="#64748b"/>
</svg>
