<svg xmlns="http://www.w3.org/2000/svg" viewBox="0 0 210 297" fill="none">
  <rect width="210" height="297" fill="#ffffff"/>
  <rect x="20" y="20" width="170" height="40" fill="#f8fafc"/>
  <rect x="30" y="28" width="80" height="8" rx="2" fill="#4f46e5"/>
  <rect x="30" y="40" width="60" height="5" rx="1" fill="#94a3b8"/>
  <rect x="30" y="50" width="100" height="3" rx="1" fill="#cbd5e1"/>
  <line x1="20" y1="65" x2="190" y2="65" stroke="#4f46e5" stroke-width="2"/>
  <rect x="20" y="75" width="170" height="20" fill="#f8fafc"/>
  <rect x="25" y="80" width="160" height="3" rx="1" fill="#e2e8f0"/>
  <rect x="25" y="86" width="140" height="3" rx="1" fill="#e2e8f0"/>
  <rect x="20" y="105" width="50" height="6" rx="1" fill="#4f46e5"/>
  <rect x="20" y="115" width="110" height="4" rx="1" fill="#64748b"/>
  <rect x="20" y="122" width="80" height="3" rx="1" fill="#94a3b8"/>
  <rect x="20" y="128" width="100" height="3" rx="1" fill="#cbd5e1"/>
  <rect x="20" y="134" width="90" height="3" rx="1" fill="#cbd5e1"/>
  <rect x="20" y="150" width="110" height="4" rx="1" fill="#64748b"/>
  <rect x="20" y="157" width="80" height="3" rx="1" fill="#94a3b8"/>
  <rect x="20" y="163" width="100" height="3" rx="1" fill="#cbd5e1"/>
  <rect x="145" y="105" width="45" height="6" rx="1" fill="#4f46e5"/>
  <rect x="145" y="115" width="40" height="4" rx="1" fill="#64748b"/>
  <rect x="145" y="122" width="45" height="8" rx="2" fill="#f1f5f9"/>
  <rect x="147" y="125" width="30" height="2" rx="1" fill="#4f46e5"/>
  <rect x="145" y="135" width="40" height="4" rx="1" fill="#64748b"/>
  <rect x="145" y="142" width="45" height="8" rx="2" fill="#f1f5f9"/>
  <rect x="147" y="145" width="25" height="2" rx="1" fill="#4f46e5"/>
</svg>
